<?xml version="1.0" encoding="UTF-8" standalone="no"?>
<!DOCTYPE svg PUBLIC "-//W3C//DTD SVG 1.1//EN" "http://www.w3.org/Graphics/SVG/1.1/DTD/svg11.dtd">
<svg width="100%" height="100%" viewBox="0 0 1921 940" version="1.1" xmlns="http://www.w3.org/2000/svg" xmlns:xlink="http://www.w3.org/1999/xlink" xml:space="preserve" xmlns:serif="http://www.serif.com/" style="fill-rule:evenodd;clip-rule:evenodd;stroke-linejoin:round;stroke-miterlimit:1.41421;">
    <g id="Artboard1" transform="matrix(1,0,0,1,483.392,115.189)">
        <rect x="-483.392" y="-115.189" width="1920.88" height="939.835" style="fill:none;"/>
        <clipPath id="_clip1">
            <rect x="-483.392" y="-115.189" width="1920.88" height="939.835"/>
        </clipPath>
        <g clip-path="url(#_clip1)">
            <g transform="matrix(1,0,0,1,-483.392,-115.189)">
                <rect x="-45.354" y="-32.472" width="2098.39" height="901.798" style="fill:rgb(29,29,29);"/>
            </g>
            <g id="path21" transform="matrix(1,0,0,1,-483.392,-115.189)">
                <path d="M-2.06,674.386L-2.06,660.252C-2.06,639.187 -0.634,618.201 1.11,613.615C2.853,609.03 7.151,591.246 10.661,574.096C14.171,556.946 20.175,529.195 24.003,512.428C32.083,477.036 33.295,427.163 26.928,392.023L22.847,369.493L37.069,343.781C44.892,329.639 58.497,308.73 67.304,297.316C94.39,262.214 94.236,262.614 93.976,227.74C93.847,210.469 92.645,188.62 91.303,179.185C88.622,160.326 91.024,157.134 105.219,160.697C111.992,162.397 113.27,165.048 115.051,181.099C116.178,191.246 118.329,202.436 119.832,205.966C121.334,209.496 122.307,223.214 121.994,236.452C121.473,258.457 120.378,262.114 109.216,279.138C102.503,289.378 92.068,308.068 86.028,320.671C76.507,340.537 75.296,345.747 76.925,359.815C77.959,368.741 77.382,383.802 75.643,393.284C72.585,409.957 75.505,432.202 80.752,432.202C82.009,432.202 85.712,420.289 88.982,405.728C102.701,344.632 112.546,326.22 134.658,320.305C151.836,315.709 193.562,336.407 198.503,351.974C199.624,355.506 201.888,358.395 203.534,358.395C207.024,358.395 207.913,350.049 206.73,328.392C205.911,313.393 206.153,312.915 213.424,315.153C217.573,316.43 221.094,317.656 221.25,317.878C223.388,320.928 235.386,349.178 237.095,355.186C238.349,359.598 241.162,365.374 243.345,368.022C245.528,370.669 251.494,380.415 256.604,389.679C266.62,407.84 272.539,409.892 271.931,394.993C271.192,376.896 260.561,311.549 254.34,286.859C248.666,264.346 244.748,224.204 244.905,190.213C244.968,176.724 252.181,165.853 261.069,165.853C269.326,165.853 274.305,187.635 273.747,221.314C272.905,272.09 273.752,278.469 285.092,306.773C297.961,338.894 309.172,379.46 309.317,394.437C309.414,404.37 309.67,404.594 314.146,398.676C316.745,395.239 318.032,389.779 317.005,386.544C315.008,380.25 329.745,351.977 335.023,351.977C336.713,351.977 338.142,350.172 338.197,347.965C338.472,337.043 370.763,324.55 390.543,327.713C402.904,329.689 432.711,345.863 434.971,351.819C436.905,356.916 474.44,347.228 485.735,338.717C502.445,326.125 518.319,318.741 520.635,322.481C521.724,324.242 527.641,326.183 533.783,326.795L544.95,327.909L547.323,309.315C550.105,287.525 556.857,274.707 569.485,267.248C574.487,264.293 583.88,256.877 590.357,250.768C596.835,244.659 603.343,239.661 604.821,239.661C606.298,239.661 609.845,243.229 612.703,247.591L617.899,255.521L630.671,249.005C640.69,243.894 644.428,243.307 648.012,246.282C650.525,248.367 652.579,251.702 652.578,253.692C652.574,257.903 625.363,278.713 608.221,287.615C588.502,297.855 575.564,311.839 575.564,322.914C575.564,335.678 583.948,336.064 586.723,323.427C590.713,305.261 596.165,303.348 641.349,304.266C646.644,304.375 654.948,303.432 659.801,302.172C667.331,300.219 668.626,300.862 668.626,306.551C668.626,311.809 672.142,314.263 685.254,318.157C694.399,320.873 703.73,323.095 705.99,323.095C708.25,323.095 720.768,326.483 733.808,330.624C754.086,337.063 758.372,337.527 763.425,333.833C772.224,327.398 776.114,328.416 788.939,340.512L800.601,351.511L795.301,361.761C787.95,375.976 790.92,388.181 811.329,427.625C820.729,445.793 830.886,468.08 833.899,477.151L839.377,493.645L854.284,477.204C867.423,462.714 871.211,460.456 886.231,458.163C895.603,456.733 904.416,454.277 905.814,452.707C907.213,451.136 910.192,442.631 912.435,433.806C929.753,365.674 943.162,337.658 962.975,328.21C977.176,321.438 987.074,321.759 1003.12,329.513C1010.43,333.043 1021.28,335.931 1027.25,335.931C1040.8,335.931 1048.73,340.072 1064.75,355.517C1072.72,363.209 1077.64,371.021 1078.08,376.689C1079.13,390.371 1085.09,403.32 1090.34,403.32C1096.14,403.32 1100.59,428.747 1096.31,437.45C1094.69,440.741 1093.96,450.841 1094.68,459.896L1095.99,476.359L1109.27,478.14C1116.57,479.12 1124.03,478.769 1125.83,477.362C1127.64,475.955 1132.73,473.926 1137.14,472.853C1141.56,471.779 1147.9,466.774 1151.24,461.728C1156.34,454.022 1165.78,446.042 1182.82,435.034C1184.64,433.855 1183.75,428.92 1180.6,422.84C1177.67,417.164 1176.23,409.776 1177.36,406.212C1178.52,402.542 1177.22,396.48 1174.31,392.044C1165.11,377.99 1167.68,366.395 1186.49,337.22C1192.75,327.521 1222.08,307.05 1229.72,307.05C1233.02,307.05 1233.62,303.703 1232.19,293.411C1231.15,285.91 1229.08,268.942 1227.59,255.705C1226.1,242.468 1223.06,228.237 1220.83,224.081C1218.61,219.925 1216.02,207.151 1215.1,195.694C1213.55,176.622 1213.91,174.96 1219.4,176C1223.54,176.785 1225.71,180.421 1226.41,187.734C1227.49,198.975 1234.87,200.568 1235.22,189.637C1235.86,169.725 1246.66,167.369 1262.47,183.695L1273.53,195.119L1272.58,239.05C1271.54,287.249 1274.81,302.923 1289.53,320.424C1298.01,330.497 1299.56,341.623 1294.64,357.113C1293.02,362.23 1290.8,373.998 1289.72,383.264C1287.39,403.135 1292.23,405.742 1303.39,390.64C1315.31,374.521 1350.75,368.97 1365.86,380.857C1370.35,384.387 1374.73,387.275 1375.6,387.275C1376.47,387.275 1380.17,382.582 1383.82,376.846C1387.47,371.11 1392.78,363.26 1395.62,359.403C1400.51,352.775 1400.09,350.924 1387.99,325.708C1380.94,311.034 1372.21,292.094 1368.59,283.62C1359.55,262.504 1335.26,234.96 1318.55,226.868C1301.87,218.795 1292.77,200.395 1296.43,182.127L1298.29,172.8L1322.81,173.337L1347.34,173.875L1361.78,202.279C1369.72,217.902 1385.6,242.161 1397.08,256.19C1428.85,295.049 1454.53,333.155 1456.76,344.768C1458.01,351.281 1456.94,359.13 1453.92,365.627C1451.26,371.356 1444.78,386.874 1439.53,400.111C1434.28,413.348 1426.94,430.677 1423.22,438.619L1416.47,453.06L1424.07,473.919C1428.24,485.391 1432.38,494.777 1433.25,494.777C1434.12,494.777 1440.42,488.033 1447.24,479.79C1454.07,471.546 1471.74,454.982 1486.51,442.98L1513.36,421.159L1511.28,401.81C1504.9,342.715 1504.69,345.475 1516.9,326.394C1527.55,309.758 1527.91,308.289 1523.79,298.432C1519.1,287.205 1487.7,243.48 1480.25,237.791C1477.74,235.88 1470.64,232.398 1464.46,230.051C1450.74,224.837 1441.74,217.15 1425.35,196.629C1413.8,182.166 1413.19,180.456 1417.93,175.77C1422.67,171.097 1423.83,171.497 1431.75,180.504C1447.73,198.687 1450.59,199.636 1456.27,188.653C1459.62,182.161 1462.94,179.535 1466.19,180.784C1470.26,182.345 1470.74,180.507 1469.03,169.845C1465.71,149.083 1473.02,149.794 1482.47,171.153C1486.99,181.386 1495.56,195.145 1501.51,201.729C1507.46,208.312 1515.42,219.775 1519.21,227.201C1523,234.627 1531.87,249.161 1538.93,259.499L1551.76,278.294L1561.32,267.802C1573.84,254.073 1596.03,220.53 1596.03,215.345C1596.03,213.109 1600.37,198.542 1605.66,182.975C1610.96,167.408 1615.29,151.686 1615.29,148.039C1615.29,144.391 1617.14,138.879 1619.39,135.79C1622.81,131.118 1625.04,130.759 1632.66,133.655C1641.48,137.009 1641.72,137.685 1639.43,152.296C1638.12,160.634 1636.7,173.233 1636.28,180.293C1635.15,199.503 1625.1,230.905 1618.64,235.427C1612.9,239.452 1570.36,300.826 1570.36,305.093C1570.36,306.363 1575.93,315.626 1582.75,325.677C1589.56,335.729 1596.15,347.202 1597.4,351.173C1600.49,360.976 1602.49,360.169 1613.79,344.559C1619.14,337.166 1628.8,328.266 1635.25,324.782C1645.84,319.057 1648.46,318.844 1662.42,322.574C1679.99,327.271 1690.34,335.687 1698.79,352.168C1712.29,378.495 1719.2,427.889 1713.53,457.548L1710.83,471.663L1720.63,464.688C1726.49,460.519 1734.49,449.033 1740.53,436.132C1746.08,424.263 1755.47,409.497 1761.39,403.32C1774.04,390.11 1779.22,378.066 1776.75,367.563C1769.8,337.968 1748.27,271.501 1739.31,251.979C1726.39,223.818 1722.15,210.773 1719.68,191.524C1717.43,174.04 1724.23,152.803 1733.12,149.512C1739.84,147.026 1739.02,144.789 1752.04,201.151C1761.54,242.28 1766.99,257.735 1782.01,286.191C1790.39,302.075 1801.44,325.537 1806.55,338.327C1811.67,351.117 1816.65,361.587 1817.63,361.592C1821.83,361.617 1846.33,341.452 1846.22,338.06C1846.14,336.006 1839.46,329.272 1831.35,323.094C1803.7,302.041 1794.67,293.269 1796.3,289.028C1797.19,286.698 1796.39,283.848 1794.53,282.695C1789.92,279.844 1793.73,262.419 1800.64,254.785C1803.7,251.399 1809.97,246.684 1814.57,244.307C1822.36,240.278 1823.58,240.682 1832.45,250.251C1837.69,255.898 1845.68,265.136 1850.22,270.78L1858.48,281.041L1860.68,263.369C1862.65,247.626 1863.65,245.806 1869.84,246.69C1874.7,247.385 1877.29,250.563 1878.49,257.309L1880.19,266.936L1885.73,253.233C1888.77,245.696 1891.27,237.273 1891.27,234.514C1891.27,231.755 1893.07,230.135 1895.28,230.913C1897.76,231.787 1899.06,237.403 1898.68,245.621C1898.35,252.932 1899.27,258.914 1900.73,258.914C1902.2,258.914 1906.48,252.353 1910.25,244.334C1914.02,236.316 1918.51,230.625 1920.23,231.688C1925.87,235.176 1923.64,267.002 1916.55,284.052C1909.13,301.923 1910.19,313.98 1918.58,307.018C1922.65,303.637 1923.36,304.706 1923.36,314.288C1923.36,322.292 1921.28,326.982 1916.13,330.603L1908.91,335.685L1916.13,337.786L1923.36,339.888L1923.36,674.386L1937.33,674.386L1937.33,977.099L-5.732,977.099L-5.732,674.386L-2.06,674.386ZM58.026,674.386C58.294,651.271 54.959,611.585 49.976,592.653C47.161,581.957 44.33,602.688 41.101,657.635L40.117,674.386L58.026,674.386ZM1548.37,618.68C1546.26,605.248 1543.13,585.594 1541.42,575.004C1539.71,564.414 1537.47,544.682 1536.44,531.154C1535.41,517.626 1532.7,504.01 1530.43,500.896C1526.64,495.715 1525.57,496.313 1517.88,507.936L1509.48,520.637L1514.5,547.82C1517.26,562.771 1522.84,584.39 1526.9,595.863C1530.96,607.335 1536.07,627.552 1538.25,640.789C1543.32,671.458 1545.45,674.655 1549.19,657.188C1551.23,647.686 1550.96,635.154 1548.37,618.68L1548.37,618.68ZM822.54,547.908C824.275,541.83 825.271,536.433 824.754,535.916C822.848,534.01 796.987,552.485 796.987,555.753C796.987,557.613 799.367,562.532 802.275,566.684L807.562,574.233L813.474,566.596C816.725,562.396 820.804,553.987 822.54,547.908ZM404.054,508.939C405.24,507.021 409.102,506.207 412.636,507.131C416.17,508.055 426.903,505.343 436.488,501.104L453.916,493.397L448.586,485.263C445.443,480.466 440.233,477.129 435.888,477.129C431.678,477.129 425.125,473.094 420.6,467.717C412.714,458.344 412.633,458.327 401.16,463.527C389.69,468.726 379.814,485.215 379.814,499.166C379.814,508.282 399.544,516.237 404.054,508.939ZM784.151,495.978C784.151,485.509 774.075,427.966 771.361,422.933C769.721,419.892 764.706,426.512 755.561,443.792C747.929,458.213 743.258,470.608 744.706,472.597C746.104,474.518 751.579,482.044 756.874,489.323C764.044,499.18 768.754,502.588 775.326,502.679C782.224,502.776 784.151,501.311 784.151,495.978ZM622.177,428.661C629.218,399.927 626.495,357.096 617.798,359.802C614.867,360.714 604.042,359.488 593.743,357.076L575.017,352.692L577.266,372.071C578.503,382.729 582.946,398.814 587.138,407.815C597.791,430.687 599.701,443.169 593.829,451.552C589.506,457.724 589.532,460.052 594.072,473.376L599.154,488.29L607.931,469.634C612.758,459.373 619.169,440.935 622.177,428.661L622.177,428.661ZM673.835,441.065C683.222,436.788 683.264,435.414 674.353,423.81C660.295,405.506 659.107,406.051 649.648,435.139C640.231,464.099 640.9,466.761 654.581,454.749C660.975,449.135 669.64,442.977 673.835,441.065L673.835,441.065ZM307.954,449.589C306.883,446.798 305.917,437.772 305.807,429.533L305.608,414.553L298.804,428.094C292.189,441.258 292.164,441.817 297.896,448.15C304.913,455.904 310.695,456.731 307.954,449.589L307.954,449.589ZM1584.51,404.946C1587.68,392.335 1584.04,395.456 1575.17,412.965C1567.24,428.606 1567.18,429.255 1572.71,437.702L1578.38,446.377L1580.44,429.683C1581.57,420.501 1583.4,409.369 1584.51,404.946ZM1813.77,431.888C1819.33,429.951 1823.88,426.702 1823.89,424.668C1823.89,422.634 1827.55,413.791 1832,405.016L1840.09,389.061L1828.17,400.202C1812.82,414.56 1805.31,422.812 1801.25,429.795C1797.44,436.328 1799.87,436.734 1813.77,431.888ZM241.826,425.974C241.826,424.313 240.382,422.062 238.617,420.971C236.852,419.88 235.408,421.239 235.408,423.99C235.408,426.742 236.852,428.993 238.617,428.993C240.381,428.993 241.825,427.635 241.826,425.974ZM711.818,404.123C717.971,397.505 723.014,391.367 723.024,390.485C723.044,388.904 708.058,377.96 689.75,366.184L680.389,360.162L682.26,371.694C684.041,382.667 696.999,416.157 699.464,416.157C700.105,416.157 705.664,410.742 711.818,404.123ZM1546.88,364.211C1545.86,361.651 1545.1,362.411 1544.94,366.15C1544.8,369.533 1545.56,371.428 1546.63,370.362C1547.69,369.296 1547.81,366.528 1546.88,364.211L1546.88,364.211Z" style="fill:rgb(27,27,27);fill-rule:nonzero;"/>
            </g>
        </g>
    </g>
</svg>
